<svg width="1060" height="255" viewBox="0 0 1060 255" fill="none" xmlns="http://www.w3.org/2000/svg">
<g clip-path="url(#clip0_66_78)">
<path d="M36.558 20.2803H26.5811V129.635H36.558V20.2803Z" fill="#0064FF"/>
<path d="M133.253 245.949H181.781V146.385H245.079V136.638H133.253V245.949Z" fill="#0064FF"/>
<path d="M213.242 35.4136H57.4073L57.3785 164.089H0V211.38H106.31V82.4592H213.242V35.4136Z" fill="#0064FF"/>
<path d="M235.679 0.613037H225.847V10.4467H216.014H206.182V20.2803H216.014H225.847V30.114V39.9477H235.679V30.114V20.2803H245.512V10.4467H235.679V0.613037Z" fill="#0064FF"/>
<path d="M349.988 211.813C337.614 211.813 327.045 209.546 318.296 205.026C309.546 200.492 301.764 193.936 294.978 185.33L309.459 170.846C314.441 177.792 320.173 183.034 326.67 186.586C333.153 190.138 341.152 191.9 350.667 191.9C360.182 191.9 367.531 189.864 373.191 185.792C378.851 181.72 381.681 176.131 381.681 169.041C381.681 163.15 380.323 158.399 377.609 154.775C374.894 151.15 371.227 148.176 366.636 145.836C362.03 143.497 357.02 141.389 351.576 139.497C346.147 137.605 340.704 135.569 335.275 133.389C329.846 131.209 324.865 128.479 320.331 125.245C315.798 121.996 312.145 117.736 309.358 112.451C306.557 107.166 305.171 100.523 305.171 92.5237C305.171 83.6142 307.322 76.0332 311.625 69.7662C315.928 63.4992 321.819 58.6763 329.283 55.2829C336.748 51.8895 345.166 50.1855 354.522 50.1855C364.788 50.1855 373.985 52.1927 382.143 56.1926C390.286 60.1925 396.928 65.4342 402.068 71.9322L387.571 86.4156C382.893 80.9861 377.869 76.914 372.512 74.1849C367.155 71.4701 361.005 70.1128 354.06 70.1128C345.613 70.1128 338.885 71.9611 333.918 75.6577C328.937 79.3544 326.453 84.5239 326.453 91.1663C326.453 96.4514 327.839 100.711 330.641 103.96C333.427 107.209 337.095 109.953 341.614 112.22C346.147 114.487 351.158 116.566 356.673 118.444C362.174 120.335 367.646 122.4 373.09 124.667C378.518 126.934 383.5 129.808 388.033 133.273C392.567 136.753 396.22 141.23 399.007 146.746C401.793 152.262 403.194 159.164 403.194 167.467C403.194 181.359 398.4 192.218 388.813 200.073C379.226 207.928 366.289 211.842 349.988 211.842V211.813Z" fill="#0064FF"/>
<path d="M484.742 102.011H401.735V120.581H484.742V102.011Z" fill="#0064FF"/>
<path d="M462.767 56.958H442.395V209.546H462.767V56.958Z" fill="#0064FF"/>
<path d="M549.932 211.813C539.218 211.813 529.559 209.358 520.954 204.448C512.348 199.539 505.562 192.867 500.581 184.406C495.6 175.958 493.116 166.37 493.116 155.655C493.116 144.941 495.571 135.584 500.48 127.136C505.389 118.689 512.031 112.003 520.405 107.094C528.779 102.184 538.179 99.7292 548.589 99.7292C558.999 99.7292 567.344 101.996 574.968 106.516C582.591 111.05 588.554 117.303 592.857 125.303C597.16 133.302 599.311 142.356 599.311 152.464C599.311 153.98 599.239 155.598 599.08 157.33C598.921 159.063 598.633 161.07 598.171 163.338H507.396V146.356H587.313L579.848 152.926C579.848 145.677 578.563 139.54 575.993 134.472C573.423 129.418 569.799 125.49 565.121 122.703C560.443 119.916 554.783 118.516 548.141 118.516C541.5 118.516 535.089 120.032 529.804 123.05C524.52 126.068 520.448 130.299 517.575 135.728C514.702 141.158 513.272 147.583 513.272 154.977C513.272 162.37 514.774 169.128 517.806 174.788C520.824 180.449 525.126 184.824 530.714 187.914C536.302 191.005 542.712 192.55 549.96 192.55C555.996 192.55 561.54 191.496 566.594 189.373C571.647 187.265 575.993 184.088 579.603 179.871L592.727 193.228C587.587 199.264 581.292 203.871 573.827 207.048C566.363 210.21 558.393 211.798 549.946 211.798L549.932 211.813Z" fill="#0064FF"/>
<path d="M616.955 254.613V102.011H637.328V130.313L633.473 156.349L637.328 182.615V254.613H616.955ZM673.554 211.827C665.411 211.827 658.047 210.123 651.477 206.73C644.908 203.336 639.667 198.614 635.74 192.579C631.812 186.543 629.632 179.669 629.17 171.973V139.598C629.618 131.757 631.841 124.855 635.841 118.877C639.84 112.913 645.125 108.234 651.694 104.841C658.264 101.448 665.541 99.7437 673.539 99.7437C683.343 99.7437 692.223 102.227 700.135 107.209C708.062 112.191 714.285 118.906 718.804 127.353C723.338 135.8 725.59 145.316 725.59 155.872C725.59 166.428 723.323 175.944 718.804 184.391C714.27 192.853 708.047 199.524 700.135 204.434C692.208 209.343 683.343 211.798 673.539 211.798L673.554 211.827ZM670.161 192.579C676.947 192.579 682.91 190.99 688.05 187.828C693.176 184.651 697.247 180.319 700.279 174.803C703.297 169.301 704.813 162.919 704.813 155.67C704.813 148.421 703.297 142.241 700.279 136.652C697.262 131.064 693.19 126.732 688.05 123.642C682.924 120.552 677.034 119.007 670.392 119.007C663.75 119.007 657.643 120.552 652.503 123.642C647.377 126.732 643.377 131.078 640.504 136.652C637.631 142.241 636.202 148.652 636.202 155.901C636.202 163.15 637.588 169.301 640.389 174.803C643.175 180.319 647.175 184.651 652.387 187.828C657.599 191.005 663.519 192.579 670.161 192.579Z" fill="#0064FF"/>
<path d="M782.16 52.4238H760.878V209.546H782.16V52.4238Z" fill="#0064FF"/>
<path d="M851.58 52.4238H766.119V71.8168H851.58V52.4238Z" fill="#0064FF"/>
<path d="M834.023 116.018H739.841V135.483H834.023V116.018Z" fill="#0064FF"/>
<path d="M897.755 211.813C888.847 211.813 880.891 209.806 873.874 205.806C866.857 201.806 861.385 196.261 857.457 189.171C853.53 182.081 851.566 173.85 851.566 164.493V102.011H871.939V163.597C871.939 169.489 872.964 174.572 875 178.875C877.036 183.178 880.01 186.456 883.938 188.723C887.865 190.99 892.456 192.116 897.741 192.116C905.74 192.116 912.006 189.589 916.525 184.535C921.059 179.481 923.311 172.507 923.311 163.597V102.011H943.684V164.493C943.684 173.85 941.72 182.081 937.793 189.171C933.866 196.261 928.466 201.806 921.607 205.806C914.735 209.806 906.779 211.813 897.726 211.813H897.755Z" fill="#0064FF"/>
<path d="M963.565 209.56V102.025H983.938V209.56H963.565ZM1039.63 209.56V146.847C1039.63 138.703 1037.06 131.988 1031.93 126.703C1026.81 121.418 1020.16 118.776 1012.01 118.776C1006.58 118.776 1001.74 119.989 997.525 122.4C993.294 124.811 989.973 128.133 987.562 132.364C985.151 136.595 983.938 141.418 983.938 146.847L975.564 142.096C975.564 133.952 977.369 126.703 980.993 120.364C984.617 114.025 989.67 109.014 996.168 105.303C1002.65 101.606 1009.97 99.7581 1018.13 99.7581C1026.29 99.7581 1033.49 101.794 1039.74 105.866C1046.01 109.938 1050.95 115.267 1054.57 121.822C1058.2 128.393 1060 135.367 1060 142.76V209.546H1039.63V209.56Z" fill="#0064FF"/>
</g>
<defs>
<clipPath id="clip0_66_78">
<rect width="1060" height="254" fill="white" transform="translate(0 0.613037)"/>
</clipPath>
</defs>
</svg>
